<svg width="100" height="100" viewBox="0 0 100 100" fill="none" xmlns="http://www.w3.org/2000/svg">
<path d="M2.92969 79.2969V91.0156H50H97.0703V79.2969H50H2.92969Z" fill="#DFE7F4"/>
<path d="M50 8.98438H2.92969V20.7031H50H97.0703V8.98438H50Z" fill="#DFE7F4"/>
<path d="M50 8.98438H97.0703V20.7031H50V8.98438Z" fill="#C7CFE1"/>
<path d="M50 79.2969H97.0703V91.0156H50V79.2969Z" fill="#C7CFE1"/>
<path d="M50 20.7031H5.85938V79.2969H50H94.1406V20.7031H50Z" fill="#95BAC7"/>
<path d="M50 20.7031H94.1406V79.2969H50V20.7031Z" fill="#5F8491"/>
<path d="M0 76.3672V93.9453H50H100V76.3672H50H0ZM15.8203 88.0859H5.85938V82.2266H15.8203V88.0859ZM31.4453 88.0859H21.6797V82.2266H31.4453V88.0859ZM47.0703 88.0859H37.3047V82.2266H47.0703V88.0859ZM84.1797 82.2266H94.1406V88.0859H84.1797V82.2266ZM68.5547 82.2266H78.3203V88.0859H68.5547V82.2266ZM52.9297 82.2266H62.6953V88.0859H52.9297V82.2266Z" fill="#404A80"/>
<path d="M50 6.05469H0V23.6328H50H100V6.05469H50ZM15.8203 17.7734H5.85938V11.9141H15.8203V17.7734ZM31.4453 17.7734H21.6797V11.9141H31.4453V17.7734ZM47.0703 17.7734H37.3047V11.9141H47.0703V17.7734ZM62.6953 17.7734H52.9297V11.9141H62.6953V17.7734ZM78.3205 17.7734H68.5547V11.9141H78.3205V17.7734ZM94.1406 17.7734H84.1604V11.9141H94.1406V17.7734Z" fill="#404A80"/>
<path d="M62.6953 17.7734H52.9297V11.9141H62.6953V17.7734ZM78.3205 17.7734H68.5547V11.9141H78.3205V17.7734ZM50 6.05469V23.6328H100V6.05469H50ZM94.1406 17.7734H84.1604V11.9141H94.1406V17.7734Z" fill="#283366"/>
<path d="M100 76.3672H50V93.9453H100V76.3672ZM62.6953 88.0859H52.9297V82.2266H62.6953V88.0859ZM78.3203 88.0859H68.5547V82.2266H78.3203V88.0859ZM94.1406 88.0859H84.1797V82.2266H94.1406V88.0859Z" fill="#283366"/>
<path d="M50 38.6672L41.2109 32.8082V67.1918L50 61.3328L67.0002 50L50 38.6672Z" fill="#F0F7FF"/>
<path d="M50 38.6672V61.3328L67.0002 50L50 38.6672Z" fill="#DFE7F4"/>
</svg>
