<svg width="100" height="100" viewBox="0 0 100 100" fill="none" xmlns="http://www.w3.org/2000/svg">
<g clip-path="url(#clip0_9_75)">
<path d="M47.8006 33.0469V4.32635C31.9389 4.32635 19.0803 17.1849 19.0803 33.0469C19.0803 48.9088 31.9389 61.7674 47.8008 61.7674C57.0441 61.7674 65.2637 57.3978 70.5168 50.6148L70.5195 50.617C74.2812 45.7601 76.5213 39.6656 76.5213 33.0469H47.8006Z" fill="#FF4C4C"/>
<path d="M67.5494 33.0469C67.5494 37.6895 66.4467 42.0738 64.4906 45.9545C60.4074 54.0557 52.6017 59.9594 43.3195 61.417C44.3853 61.5842 45.4707 61.6924 46.5721 61.7394C46.6373 61.7422 46.7027 61.7445 46.7682 61.7469C47.1109 61.7592 47.4547 61.7674 47.8006 61.7674C48.0711 61.7674 48.3406 61.7629 48.6094 61.7555C48.6949 61.7531 48.7801 61.7488 48.8654 61.7457C49.0492 61.7391 49.2328 61.7314 49.4156 61.7213C49.5146 61.7158 49.6135 61.709 49.7123 61.7025C49.8824 61.6914 50.0523 61.6791 50.2217 61.6648C50.3219 61.6564 50.4219 61.6476 50.5217 61.6383C50.6937 61.6221 50.8652 61.6041 51.0365 61.5849C51.1293 61.5746 51.2221 61.5644 51.3146 61.5531C51.5051 61.5299 51.6947 61.5041 51.884 61.4771C51.9549 61.467 52.0262 61.458 52.0969 61.4474C52.6256 61.3682 53.1498 61.2744 53.6685 61.1666C53.7166 61.1566 53.7643 61.1455 53.8123 61.1353C54.0228 61.0904 54.2326 61.0437 54.4414 60.9943C54.5066 60.9789 54.5715 60.9625 54.6365 60.9467C54.831 60.8992 55.0248 60.85 55.2178 60.7984C55.2818 60.7814 55.3457 60.7641 55.4096 60.7465C55.6111 60.6912 55.8117 60.6338 56.0115 60.5742C56.0611 60.5594 56.1109 60.5449 56.1605 60.5299C56.3978 60.4578 56.6342 60.383 56.8687 60.3049C56.8783 60.3017 56.8877 60.2988 56.8973 60.2957C57.6732 60.0365 58.4344 59.7453 59.1791 59.4232C59.1818 59.4221 59.1846 59.4209 59.1873 59.4197C59.4326 59.3137 59.6762 59.2041 59.9178 59.0914C59.9221 59.0894 59.9264 59.0873 59.9307 59.0853C64.1018 57.1375 67.7273 54.2164 70.5168 50.6148L70.5195 50.617C70.981 50.0209 71.4195 49.4059 71.8342 48.7738C71.8459 48.756 71.8576 48.7385 71.8691 48.7207C71.9625 48.5777 72.0543 48.4338 72.1453 48.2891C72.1621 48.2623 72.1787 48.2355 72.1955 48.2088C72.2857 48.0639 72.375 47.9184 72.4627 47.7717C72.4723 47.7559 72.4814 47.7398 72.491 47.7238C72.8629 47.0998 73.2113 46.4605 73.5359 45.8072C73.557 45.7648 73.5783 45.7225 73.5992 45.6799C73.6654 45.5449 73.7305 45.4092 73.7945 45.273C73.8197 45.2193 73.8447 45.1656 73.8697 45.1119C73.9314 44.9787 73.9928 44.8449 74.0525 44.7105C74.076 44.658 74.0988 44.6049 74.1219 44.5521C74.3184 44.1033 74.5035 43.6486 74.6775 43.1883C74.6984 43.133 74.7199 43.0781 74.7404 43.0228C74.7857 42.9006 74.8293 42.7773 74.873 42.6543C74.9016 42.574 74.9301 42.4939 74.958 42.4133C74.9984 42.2961 75.0379 42.1785 75.0768 42.0607C75.1061 41.9725 75.1346 41.8838 75.1631 41.7951C75.1994 41.6812 75.2355 41.5672 75.2705 41.4527C75.2998 41.3566 75.3281 41.2602 75.3566 41.1635C75.3889 41.0537 75.4215 40.9443 75.4525 40.834C75.4867 40.7121 75.5191 40.5896 75.5518 40.467C75.5937 40.3098 75.6344 40.152 75.6736 39.9936C75.7053 39.8664 75.7371 39.7393 75.767 39.6113C75.7898 39.5137 75.8111 39.4154 75.833 39.3176C75.8592 39.1996 75.8853 39.0816 75.9102 38.9633C75.9309 38.8646 75.9506 38.7656 75.9703 38.6668C75.9943 38.5455 76.0176 38.424 76.0402 38.3021C76.0578 38.2068 76.0754 38.1117 76.092 38.0162C76.1152 37.8826 76.1371 37.7486 76.1586 37.6145C76.1721 37.5299 76.1863 37.4453 76.199 37.3605C76.2295 37.1586 76.2578 36.9562 76.2842 36.7529C76.2898 36.7092 76.2949 36.6652 76.3004 36.6215C76.3242 36.4299 76.3463 36.2377 76.3662 36.0451C76.3744 35.966 76.3812 35.8865 76.3889 35.8074C76.4029 35.6609 76.4162 35.5143 76.4279 35.3672C76.4348 35.2803 76.441 35.1934 76.4473 35.1063C76.4574 34.9637 76.4664 34.8207 76.4744 34.6775C76.4793 34.5912 76.484 34.5049 76.4881 34.4184C76.4953 34.265 76.501 34.1111 76.5057 33.9572C76.508 33.8826 76.5109 33.8082 76.5127 33.7334C76.518 33.5074 76.5213 33.2811 76.5213 33.0539C76.5213 33.0518 76.5213 33.0496 76.5213 33.0475H67.5494V33.0469V33.0469Z" fill="#F33939"/>
<path d="M76.5211 33.0469H47.8006L70.5193 50.617C74.281 45.76 76.5211 39.6654 76.5211 33.0469Z" fill="#FFB125"/>
<path d="M67.5494 33.0469C67.5494 37.6895 66.4467 42.0738 64.4906 45.9545L70.5193 50.617C70.9811 50.0209 71.4195 49.4059 71.834 48.7738C71.8457 48.7561 71.8574 48.7385 71.869 48.7207C71.9623 48.5777 72.0541 48.4338 72.1451 48.2891C72.1619 48.2623 72.1785 48.2356 72.1953 48.2088C72.2856 48.0639 72.3748 47.9184 72.4625 47.7717C72.4721 47.7559 72.4813 47.7399 72.4908 47.7238C72.8627 47.0998 73.2111 46.4606 73.5358 45.8072C73.5568 45.7649 73.5781 45.7225 73.599 45.6801C73.6652 45.5451 73.7303 45.4094 73.7943 45.2733C73.8195 45.2195 73.8445 45.1658 73.8695 45.1121C73.9315 44.9789 73.9926 44.8451 74.0524 44.7108C74.0758 44.6582 74.0986 44.6051 74.1217 44.5524C74.3182 44.1035 74.5033 43.6488 74.6774 43.1885C74.6983 43.1332 74.7197 43.0783 74.7402 43.0231C74.7856 42.9008 74.8293 42.7775 74.8729 42.6545C74.9014 42.5742 74.9299 42.4941 74.9578 42.4135C74.9983 42.2963 75.0375 42.1787 75.0766 42.0609C75.1057 41.9725 75.1344 41.884 75.1629 41.7953C75.1992 41.6815 75.2354 41.5674 75.2703 41.4529C75.2996 41.3568 75.3279 41.2604 75.3563 41.1637C75.3885 41.0539 75.4213 40.9445 75.4522 40.8342C75.4863 40.7123 75.5188 40.5898 75.5514 40.4672C75.5934 40.31 75.634 40.1522 75.6733 39.9938C75.7049 39.8666 75.7365 39.7395 75.7666 39.6115C75.7895 39.5139 75.8108 39.4156 75.8326 39.3178C75.8588 39.1998 75.885 39.0818 75.9098 38.9635C75.9305 38.8648 75.9502 38.7658 75.9699 38.667C75.994 38.5457 76.0172 38.4242 76.0399 38.3023C76.0574 38.207 76.075 38.1119 76.0916 38.0164C76.1149 37.8828 76.1367 37.7488 76.1582 37.6147C76.1717 37.5301 76.1859 37.4455 76.1986 37.3607C76.2291 37.1588 76.2574 36.9564 76.2836 36.7531C76.2893 36.7094 76.2943 36.6654 76.2998 36.6217C76.3236 36.4301 76.3457 36.2379 76.3658 36.0453C76.374 35.9662 76.3809 35.8869 76.3885 35.8076C76.4026 35.6611 76.4158 35.5145 76.4275 35.3674C76.4346 35.2805 76.4408 35.1936 76.4469 35.1064C76.457 34.9639 76.466 34.8209 76.474 34.6777C76.4789 34.5914 76.4836 34.5051 76.4877 34.4186C76.4949 34.2652 76.5004 34.1113 76.5053 33.9574C76.5076 33.8828 76.5106 33.8084 76.5123 33.7336C76.5176 33.5076 76.5209 33.2813 76.5209 33.0541C76.5209 33.052 76.5211 33.0498 76.5211 33.0477H67.5494V33.0469V33.0469Z" fill="#FF901D"/>
<path d="M7.95099 95.3502V61.9799C7.95099 61.2601 8.53439 60.6769 9.25392 60.6769H21.3178C22.0375 60.6769 22.6207 61.2603 22.6207 61.9799V95.3502H7.95099Z" fill="#FFB125"/>
<path d="M77.3797 95.3502V55.1801C77.3797 54.4603 77.9631 53.8771 78.6826 53.8771H90.7465C91.4662 53.8771 92.0494 54.4605 92.0494 55.1801V95.3502H77.3797Z" fill="#95BAC7"/>
<path d="M90.7465 53.877H81.9533C82.6728 53.877 83.2562 54.4603 83.2562 55.1799V95.35H92.0494V55.1801C92.0494 54.4604 91.4662 53.877 90.7465 53.877Z" fill="#5F8491"/>
<path d="M54.2367 95.3502V68.2326C54.2367 67.5129 54.8201 66.9297 55.5397 66.9297H67.6035C68.3232 66.9297 68.9064 67.5131 68.9064 68.2326V95.3502H54.2367Z" fill="#5F6DAE"/>
<path d="M67.6035 66.9297H60.1135V95.3502H68.9064V68.2326C68.9064 67.5131 68.3232 66.9297 67.6035 66.9297Z" fill="#283366"/>
<path d="M21.3178 60.6769H13.8277V95.3502H22.6209V61.9799C22.6209 61.2603 22.0375 60.6769 21.3178 60.6769Z" fill="#FF901D"/>
<path d="M31.094 95.3502V78.6758C31.094 77.9561 31.6774 77.3729 32.3969 77.3729H44.4606C45.1803 77.3729 45.7635 77.9563 45.7635 78.6758V95.3502H31.094Z" fill="#FF6D3A"/>
<path d="M44.4603 77.3727H36.9703V95.3502H45.7635V78.6758C45.7637 77.9561 45.1803 77.3727 44.4603 77.3727Z" fill="#ED5729"/>
<path d="M80.8621 26.8402C79.9711 12.4951 68.5512 1.00332 54.2367 0V26.8402H80.8621Z" fill="#5F6DAE"/>
<path d="M54.2367 0V2.04219C64.1998 6.10176 71.3705 15.5937 72.0691 26.8402H80.8623C79.9711 12.4951 68.5512 1.00332 54.2367 0Z" fill="#283366"/>
<path d="M96.2531 100H3.74727C3.06954 100 2.51993 99.4506 2.51993 98.7727V95.9096C2.51993 95.2319 3.06934 94.6823 3.74727 94.6823H96.2529C96.9307 94.6823 97.4803 95.2317 97.4803 95.9096V98.7727C97.4803 99.4506 96.9309 100 96.2531 100Z" fill="#998675"/>
<path d="M96.2531 97.7182H3.74727C3.06954 97.7182 2.51993 97.1688 2.51993 96.4908V98.7727C2.51993 99.4504 3.06934 100 3.74727 100H96.2529C96.9307 100 97.4801 99.4506 97.4801 98.7727V96.4908C97.4803 97.1688 96.9309 97.7182 96.2531 97.7182Z" fill="#736357"/>
</g>
<defs>
<clipPath id="clip0_9_75">
<rect width="100" height="100" fill="white"/>
</clipPath>
</defs>
</svg>
